<mxfile host="app.diagrams.net" modified="2022-07-21T07:10:45.529Z" agent="5.0 (Windows NT 10.0; Win64; x64) AppleWebKit/537.36 (KHTML, like Gecko) Chrome/103.0.5060.114 Safari/537.36 Edg/103.0.1264.62" etag="Sl-bs3J0uwNd0Xb6aiIe" version="20.1.3" type="github">
  <diagram id="p28mTziL0JFLeRYCR7zm" name="Page-1">
    <mxGraphModel dx="1422" dy="794" grid="1" gridSize="10" guides="1" tooltips="1" connect="1" arrows="1" fold="1" page="1" pageScale="1" pageWidth="827" pageHeight="1169" math="0" shadow="0">
      <root>
        <mxCell id="0" />
        <mxCell id="1" parent="0" />
        <mxCell id="vx4y8IWKgD72CTIqb8Hm-35" value="" style="rounded=1;whiteSpace=wrap;html=1;" vertex="1" parent="1">
          <mxGeometry x="1620" y="561" width="270" height="420" as="geometry" />
        </mxCell>
        <mxCell id="vx4y8IWKgD72CTIqb8Hm-1" value="" style="rounded=1;whiteSpace=wrap;html=1;" vertex="1" parent="1">
          <mxGeometry x="530" y="140" width="950" height="720" as="geometry" />
        </mxCell>
        <mxCell id="vx4y8IWKgD72CTIqb8Hm-2" value="Bank Network" style="whiteSpace=wrap;html=1;aspect=fixed;" vertex="1" parent="1">
          <mxGeometry x="50" y="430" width="190" height="190" as="geometry" />
        </mxCell>
        <mxCell id="vx4y8IWKgD72CTIqb8Hm-3" value="" style="endArrow=classic;startArrow=none;html=1;rounded=0;exitX=1;exitY=0.5;exitDx=0;exitDy=0;entryX=-0.025;entryY=0.572;entryDx=0;entryDy=0;entryPerimeter=0;" edge="1" parent="1" source="vx4y8IWKgD72CTIqb8Hm-6" target="vx4y8IWKgD72CTIqb8Hm-5">
          <mxGeometry width="50" height="50" relative="1" as="geometry">
            <mxPoint x="620" y="520" as="sourcePoint" />
            <mxPoint x="670" y="470" as="targetPoint" />
          </mxGeometry>
        </mxCell>
        <mxCell id="vx4y8IWKgD72CTIqb8Hm-4" value="vNet Peering" style="text;html=1;strokeColor=none;fillColor=none;align=center;verticalAlign=middle;whiteSpace=wrap;rounded=0;" vertex="1" parent="1">
          <mxGeometry x="330" y="530" width="110" height="20" as="geometry" />
        </mxCell>
        <mxCell id="vx4y8IWKgD72CTIqb8Hm-5" value="Active/Active Firewall" style="shape=process;whiteSpace=wrap;html=1;backgroundOutline=1;" vertex="1" parent="1">
          <mxGeometry x="610" y="420" width="120" height="180" as="geometry" />
        </mxCell>
        <mxCell id="vx4y8IWKgD72CTIqb8Hm-6" value="" style="sketch=0;outlineConnect=0;fontColor=#232F3E;gradientColor=none;fillColor=#4D27AA;strokeColor=none;dashed=0;verticalLabelPosition=bottom;verticalAlign=top;align=center;html=1;fontSize=12;fontStyle=0;aspect=fixed;pointerEvents=1;shape=mxgraph.aws4.peering;" vertex="1" parent="1">
          <mxGeometry x="450" y="511" width="28" height="28" as="geometry" />
        </mxCell>
        <mxCell id="vx4y8IWKgD72CTIqb8Hm-7" value="" style="endArrow=none;startArrow=classic;html=1;rounded=0;exitX=1;exitY=0.5;exitDx=0;exitDy=0;entryX=0;entryY=0.532;entryDx=0;entryDy=0;entryPerimeter=0;" edge="1" parent="1" source="vx4y8IWKgD72CTIqb8Hm-2" target="vx4y8IWKgD72CTIqb8Hm-6">
          <mxGeometry width="50" height="50" relative="1" as="geometry">
            <mxPoint x="240" y="525" as="sourcePoint" />
            <mxPoint x="530" y="523.04" as="targetPoint" />
          </mxGeometry>
        </mxCell>
        <mxCell id="vx4y8IWKgD72CTIqb8Hm-12" value="Web Subnet&lt;br&gt;&lt;br&gt;&lt;br&gt;&lt;br&gt;&lt;br&gt;&lt;br&gt;&lt;br&gt;&lt;br&gt;&lt;br&gt;&lt;br&gt;&lt;br&gt;&lt;br&gt;&lt;br&gt;" style="rounded=0;whiteSpace=wrap;html=1;" vertex="1" parent="1">
          <mxGeometry x="920" y="380" width="120" height="290" as="geometry" />
        </mxCell>
        <mxCell id="vx4y8IWKgD72CTIqb8Hm-14" value="" style="endArrow=classic;html=1;rounded=0;exitX=0.992;exitY=0.6;exitDx=0;exitDy=0;exitPerimeter=0;" edge="1" parent="1" source="vx4y8IWKgD72CTIqb8Hm-5" target="vx4y8IWKgD72CTIqb8Hm-22">
          <mxGeometry width="50" height="50" relative="1" as="geometry">
            <mxPoint x="1070" y="500" as="sourcePoint" />
            <mxPoint x="780" y="530" as="targetPoint" />
          </mxGeometry>
        </mxCell>
        <mxCell id="vx4y8IWKgD72CTIqb8Hm-15" value="App&amp;nbsp; Subnet&lt;br&gt;&lt;br&gt;&lt;br&gt;&lt;br&gt;&lt;br&gt;&lt;br&gt;&lt;br&gt;&lt;br&gt;&lt;br&gt;&lt;br&gt;&lt;br&gt;&lt;br&gt;" style="rounded=0;whiteSpace=wrap;html=1;" vertex="1" parent="1">
          <mxGeometry x="1130" y="380" width="320" height="290" as="geometry" />
        </mxCell>
        <mxCell id="vx4y8IWKgD72CTIqb8Hm-21" value="" style="endArrow=classic;html=1;rounded=0;exitX=0.992;exitY=0.6;exitDx=0;exitDy=0;exitPerimeter=0;" edge="1" parent="1">
          <mxGeometry width="50" height="50" relative="1" as="geometry">
            <mxPoint x="1040" y="526.14" as="sourcePoint" />
            <mxPoint x="1130" y="526" as="targetPoint" />
          </mxGeometry>
        </mxCell>
        <mxCell id="vx4y8IWKgD72CTIqb8Hm-22" value="App Gateway" style="sketch=0;outlineConnect=0;fontColor=#232F3E;gradientColor=none;strokeColor=#232F3E;fillColor=#ffffff;dashed=0;verticalLabelPosition=bottom;verticalAlign=top;align=center;html=1;fontSize=12;fontStyle=0;aspect=fixed;shape=mxgraph.aws4.resourceIcon;resIcon=mxgraph.aws4.nat_gateway;" vertex="1" parent="1">
          <mxGeometry x="780" y="499" width="60" height="60" as="geometry" />
        </mxCell>
        <mxCell id="vx4y8IWKgD72CTIqb8Hm-25" value="" style="endArrow=classic;html=1;rounded=0;exitX=0.992;exitY=0.6;exitDx=0;exitDy=0;exitPerimeter=0;" edge="1" parent="1">
          <mxGeometry width="50" height="50" relative="1" as="geometry">
            <mxPoint x="860" y="530" as="sourcePoint" />
            <mxPoint x="910.96" y="530.6294466403162" as="targetPoint" />
          </mxGeometry>
        </mxCell>
        <mxCell id="vx4y8IWKgD72CTIqb8Hm-26" value="Volpay UI/Rest" style="sketch=0;aspect=fixed;html=1;points=[];align=center;image;fontSize=12;image=img/lib/mscae/VM_Scale_Set.svg;" vertex="1" parent="1">
          <mxGeometry x="960" y="511" width="50" height="50" as="geometry" />
        </mxCell>
        <mxCell id="vx4y8IWKgD72CTIqb8Hm-27" value="Hub" style="sketch=0;aspect=fixed;html=1;points=[];align=center;image;fontSize=12;image=img/lib/mscae/VM_Scale_Set.svg;" vertex="1" parent="1">
          <mxGeometry x="1190" y="585" width="50" height="50" as="geometry" />
        </mxCell>
        <mxCell id="vx4y8IWKgD72CTIqb8Hm-28" value="Channel" style="sketch=0;aspect=fixed;html=1;points=[];align=center;image;fontSize=12;image=img/lib/mscae/VM_Scale_Set.svg;" vertex="1" parent="1">
          <mxGeometry x="1330" y="585" width="50" height="50" as="geometry" />
        </mxCell>
        <mxCell id="vx4y8IWKgD72CTIqb8Hm-29" value="MQ VM" style="sketch=0;aspect=fixed;html=1;points=[];align=center;image;fontSize=12;image=img/lib/mscae/VM_Scale_Set.svg;" vertex="1" parent="1">
          <mxGeometry x="1290" y="475" width="50" height="50" as="geometry" />
        </mxCell>
        <mxCell id="vx4y8IWKgD72CTIqb8Hm-30" value="MQ LB" style="sketch=0;aspect=fixed;pointerEvents=1;shadow=0;dashed=0;html=1;strokeColor=none;labelPosition=center;verticalLabelPosition=bottom;verticalAlign=top;align=center;fillColor=#00188D;shape=mxgraph.azure.load_balancer_generic" vertex="1" parent="1">
          <mxGeometry x="1204" y="475" width="37" height="50" as="geometry" />
        </mxCell>
        <mxCell id="vx4y8IWKgD72CTIqb8Hm-31" value="" style="endArrow=classic;html=1;rounded=0;entryX=1;entryY=0.5;entryDx=0;entryDy=0;entryPerimeter=0;" edge="1" parent="1" source="vx4y8IWKgD72CTIqb8Hm-29" target="vx4y8IWKgD72CTIqb8Hm-30">
          <mxGeometry width="50" height="50" relative="1" as="geometry">
            <mxPoint x="1070" y="650" as="sourcePoint" />
            <mxPoint x="1120" y="600" as="targetPoint" />
          </mxGeometry>
        </mxCell>
        <mxCell id="vx4y8IWKgD72CTIqb8Hm-32" value="Database&lt;br&gt;&lt;br&gt;&lt;br&gt;&lt;br&gt;&lt;br&gt;&lt;br&gt;&lt;br&gt;" style="rounded=0;whiteSpace=wrap;html=1;" vertex="1" parent="1">
          <mxGeometry x="1680" y="606" width="130" height="290" as="geometry" />
        </mxCell>
        <mxCell id="vx4y8IWKgD72CTIqb8Hm-33" value="Managed SQL Server" style="aspect=fixed;perimeter=ellipsePerimeter;html=1;align=center;shadow=0;dashed=0;spacingTop=3;image;image=img/lib/active_directory/sql_server.svg;" vertex="1" parent="1">
          <mxGeometry x="1725.75" y="746" width="38.5" height="50" as="geometry" />
        </mxCell>
        <mxCell id="vx4y8IWKgD72CTIqb8Hm-34" value="" style="endArrow=classic;html=1;rounded=0;entryX=0;entryY=0.5;entryDx=0;entryDy=0;" edge="1" parent="1" target="vx4y8IWKgD72CTIqb8Hm-32">
          <mxGeometry width="50" height="50" relative="1" as="geometry">
            <mxPoint x="1479" y="540" as="sourcePoint" />
            <mxPoint x="1510" y="520" as="targetPoint" />
            <Array as="points">
              <mxPoint x="1479" y="540" />
            </Array>
          </mxGeometry>
        </mxCell>
        <mxCell id="vx4y8IWKgD72CTIqb8Hm-36" value="" style="rounded=1;whiteSpace=wrap;html=1;" vertex="1" parent="1">
          <mxGeometry x="1620" y="119" width="270" height="420" as="geometry" />
        </mxCell>
        <mxCell id="vx4y8IWKgD72CTIqb8Hm-37" value="File Server" style="rounded=0;whiteSpace=wrap;html=1;" vertex="1" parent="1">
          <mxGeometry x="1680" y="164" width="130" height="290" as="geometry" />
        </mxCell>
        <mxCell id="vx4y8IWKgD72CTIqb8Hm-39" value="" style="verticalLabelPosition=bottom;sketch=0;aspect=fixed;html=1;verticalAlign=top;strokeColor=none;align=center;outlineConnect=0;shape=mxgraph.citrix.file_server;" vertex="1" parent="1">
          <mxGeometry x="1715.72" y="340" width="58.56" height="80" as="geometry" />
        </mxCell>
        <mxCell id="vx4y8IWKgD72CTIqb8Hm-40" value="" style="endArrow=classic;startArrow=classic;html=1;rounded=0;" edge="1" parent="1" source="vx4y8IWKgD72CTIqb8Hm-29" target="vx4y8IWKgD72CTIqb8Hm-39">
          <mxGeometry width="50" height="50" relative="1" as="geometry">
            <mxPoint x="1920" y="410" as="sourcePoint" />
            <mxPoint x="1970" y="360" as="targetPoint" />
          </mxGeometry>
        </mxCell>
        <mxCell id="vx4y8IWKgD72CTIqb8Hm-41" value="" style="aspect=fixed;html=1;points=[];align=center;image;fontSize=12;image=img/lib/azure2/networking/Virtual_Networks.svg;" vertex="1" parent="1">
          <mxGeometry x="580" y="124" width="67" height="40" as="geometry" />
        </mxCell>
        <mxCell id="vx4y8IWKgD72CTIqb8Hm-42" value="" style="aspect=fixed;html=1;points=[];align=center;image;fontSize=12;image=img/lib/azure2/networking/Virtual_Networks.svg;" vertex="1" parent="1">
          <mxGeometry x="1648.72" y="100" width="67" height="40" as="geometry" />
        </mxCell>
        <mxCell id="vx4y8IWKgD72CTIqb8Hm-43" value="" style="aspect=fixed;html=1;points=[];align=center;image;fontSize=12;image=img/lib/azure2/networking/Virtual_Networks.svg;" vertex="1" parent="1">
          <mxGeometry x="1630" y="545" width="67" height="40" as="geometry" />
        </mxCell>
        <mxCell id="vx4y8IWKgD72CTIqb8Hm-44" style="edgeStyle=orthogonalEdgeStyle;rounded=0;orthogonalLoop=1;jettySize=auto;html=1;exitX=0;exitY=1;exitDx=0;exitDy=0;entryX=-0.071;entryY=1;entryDx=0;entryDy=0;entryPerimeter=0;" edge="1" parent="1" source="vx4y8IWKgD72CTIqb8Hm-33" target="vx4y8IWKgD72CTIqb8Hm-33">
          <mxGeometry relative="1" as="geometry" />
        </mxCell>
      </root>
    </mxGraphModel>
  </diagram>
</mxfile>
